<?xml version="1.0" standalone="no"?>
<!DOCTYPE svg PUBLIC "-//W3C//DTD SVG 20010904//EN"
 "http://www.w3.org/TR/2001/REC-SVG-20010904/DTD/svg10.dtd">
<svg version="1.0" xmlns="http://www.w3.org/2000/svg"
 width="700.000000pt" height="700.000000pt" viewBox="0 0 700.000000 700.000000"
 preserveAspectRatio="xMidYMid meet">
<metadata>
Created by potrace 1.11, written by Peter Selinger 2001-2013
</metadata>
<g transform="translate(0.000000,700.000000) scale(0.100000,-0.100000)"
fill="#000000" stroke="none">
<path d="M2965 6471 c-89 -28 -517 -170 -1885 -623 -382 -126 -715 -242 -740
-257 -81 -48 -137 -158 -128 -251 5 -44 1266 -3877 1295 -3933 45 -89 164
-154 263 -143 30 3 190 51 355 106 272 91 307 100 374 100 72 0 107 -12 1380
-462 1212 -430 1311 -463 1371 -463 54 0 74 5 119 31 30 16 67 48 82 70 19 27
232 615 674 1866 510 1444 645 1837 645 1875 0 63 -14 111 -45 153 -54 74 -52
73 -972 381 l-423 142 0 326 c0 320 -1 327 -24 376 -12 28 -40 65 -61 84 -80
70 -21 66 -937 69 l-827 3 -71 215 c-82 244 -104 282 -191 327 -81 42 -144 44
-254 8z m773 -2160 c348 -1053 629 -1917 625 -1921 -5 -4 -294 -101 -643 -216
-349 -115 -934 -308 -1300 -430 -492 -164 -668 -219 -676 -210 -6 6 -138 396
-294 866 -354 1075 -971 2941 -977 2957 -3 7 401 145 1179 403 651 215 1235
409 1298 430 63 21 124 38 135 37 17 -2 104 -258 653 -1916z m1332 -561 l0
-1900 -735 0 c-404 0 -735 2 -735 5 0 2 188 66 418 141 229 75 438 147 463
160 89 45 149 143 149 245 0 43 -285 918 -1000 3072 l-58 177 749 0 749 0 0
-1900z m856 835 c318 -108 579 -196 580 -198 5 -5 -1262 -3577 -1269 -3577 -4
0 -397 138 -875 306 -477 169 -943 333 -1037 366 -93 33 -199 70 -235 83 l-65
23 1060 4 c1185 3 1090 -3 1169 74 78 75 71 -78 74 1607 1 852 6 1507 11 1507
5 0 269 -88 587 -195z"/>
<path d="M2158 4720 c-51 -15 -96 -50 -185 -143 -202 -213 -306 -428 -320
-667 -23 -383 256 -694 575 -642 87 15 212 77 280 141 l53 49 70 -9 c152 -22
318 31 420 133 130 130 169 349 100 551 -89 258 -328 459 -648 546 -119 32
-302 54 -345 41z m183 -275 c327 -57 562 -256 577 -489 7 -116 -26 -184 -111
-228 -38 -19 -51 -20 -173 -13 -161 8 -188 -1 -289 -95 -77 -71 -115 -90 -185
-90 -89 0 -153 47 -206 151 -78 155 -42 376 96 579 55 81 168 200 190 200 10
0 55 -7 101 -15z"/>
<path d="M2680 3340 c-19 -3 -51 -15 -70 -25 -45 -23 -257 -221 -276 -256 -43
-83 21 -189 114 -189 47 0 64 11 180 118 l102 94 108 -11 c59 -6 133 -11 166
-11 52 0 61 3 91 33 44 44 55 98 29 146 -39 71 -45 72 -369 104 -22 2 -56 1
-75 -3z"/>
</g>
</svg>
