<svg height="556pt" viewBox="-18 -43 556.0014 556" width="556pt" xmlns="http://www.w3.org/2000/svg"><path d="m151.78125 149.894531c-29.894531 26.253907-33.660156 55.242188-23.957031 72.582031 5.878906 10.285157 15.472656 14.707032 25.078125 11.539063 4.574218-1.511719 9.238281-4.871094 13.5-9.71875 4.480468-5.121094 11.410156-7.355469 18.035156-5.832031 6.402344 1.476562 12.042969 1.433594 16.761719-.121094 9.621093-3.183594 14.617187-12.519531 13.050781-24.363281-2.609375-19.964844-22.929688-41.117188-62.46875-44.085938zm0 0"/><path d="m337.707031 330.492188c.449219-.886719.527344-1.914063.210938-2.859376l-108.035157-326.785156c-.308593-.9453122-.980468-1.722656-1.871093-2.167968-.523438-.261719-1.097657-.398438-1.683594-.398438l-223.757813 73.773438c-1.964843.648437-3.027343 2.765624-2.378906 4.730468l108.035156 326.792969c.648438 1.957031 2.761719 3.027344 4.722657 2.378906l82.046875-27.125v-.785156h2.371094l138.179687-45.671875c.941406-.316406 1.722656-.992188 2.160156-1.882812zm-109.667969-68.066407c-.488281 4.800781-4.777343 8.292969-9.578124 7.804688l-23.335938-2.382813c-.355469-.035156-.710938.082032-.976562.332032l-16.628907 15.539062c-3.523437 3.296875-9.050781 3.109375-12.347656-.414062-3.292969-3.523438-3.109375-9.050782.417969-12.347657l16.632812-15.539062c3.945313-3.691407 9.300782-5.496094 14.675782-4.949219l23.335937 2.378906c4.800781.488282 8.296875 4.777344 7.804687 9.578125zm-21.355468-27.496093c-7.800782 2.578124-16.601563 2.765624-26.175782.5625-.359374-.078126-.738281.054687-.984374.332031-6.3125 7.1875-13.617188 12.292969-21.136719 14.78125-3.800781 1.273437-7.785157 1.925781-11.792969 1.933593-13.527344 0-26.117188-7.679687-33.960938-21.4375l-.03125-.054687c-13.390624-23.871094-9.484374-62.757813 29.410157-95.800781.144531-.117188.289062-.234375.441406-.34375 1.109375-.847656 2.347656-1.515625 3.675781-1.976563 1.347656-.433593 2.757813-.640625 4.175782-.621093.167968 0 .332031.003906.488281.011718 50.835937 2.980469 77.199219 31.964844 80.777343 59.375 2.699219 20.367188-7.070312 37.347656-24.886718 43.238282zm0 0"/><path d="m341.023438 348.953125-88 29.089844h143.003906c1.144531 0 2.070312-.925781 2.070312-2.070313v-325.914062c0-1.144532-.925781-2.070313-2.070312-2.070313h-132.164063l90.636719 274.160157c3.667969 11.125-2.363281 23.109374-13.476562 26.804687zm0 0"/><path d="m519.910156 156.480469-104.339844-35.140625v254.632812c-.011718 10.785156-8.757812 19.53125-19.542968 19.542969h-190.324219l204.207031 72.15625c1.074219.378906 2.261719-.1875 2.644532-1.261719l108.578124-307.296875c.375-1.0625-.171874-2.230469-1.222656-2.632812zm0 0"/></svg>