<svg width="85" height="85" viewBox="0 0 85 85" fill="none" xmlns="http://www.w3.org/2000/svg">
<circle cx="42.5" cy="42.5" r="42.5" fill="#F2F2F2"/>
<g clip-path="url(#clip0)">
<path d="M41.8334 43.7861C41.8811 43.7861 41.9287 43.7861 41.9858 43.7861C42.0049 43.7861 42.0239 43.7861 42.043 43.7861C42.0716 43.7861 42.1097 43.7861 42.1382 43.7861C44.9293 43.7385 47.1869 42.7573 48.8539 40.8807C52.5213 36.7465 51.9117 29.6594 51.845 28.983C51.6069 23.9058 49.2064 21.4767 47.225 20.3431C45.7485 19.4953 44.0243 19.0381 42.1001 19H42.0335C42.0239 19 42.0049 19 41.9954 19H41.9382C40.8808 19 38.8042 19.1715 36.8133 20.305C34.8129 21.4386 32.3743 23.8677 32.1362 28.983C32.0695 29.6594 31.4599 36.7465 35.1273 40.8807C36.7848 42.7573 39.0424 43.7385 41.8334 43.7861ZM34.6796 29.2212C34.6796 29.1926 34.6891 29.164 34.6891 29.145C35.0034 22.315 39.8521 21.5815 41.9287 21.5815H41.9668C41.9858 21.5815 42.0144 21.5815 42.043 21.5815C44.6149 21.6386 48.9873 22.6865 49.2826 29.145C49.2826 29.1735 49.2826 29.2021 49.2921 29.2212C49.3016 29.2878 49.9684 35.7654 46.9392 39.1756C45.739 40.5283 44.1387 41.1951 42.0335 41.2141C42.0144 41.2141 42.0049 41.2141 41.9858 41.2141C41.9668 41.2141 41.9573 41.2141 41.9382 41.2141C39.8425 41.1951 38.2327 40.5283 37.042 39.1756C34.0223 35.7844 34.67 29.2783 34.6796 29.2212Z" fill="#BDBDBD"/>
<path d="M61.5613 55.5409C61.5613 55.5314 61.5613 55.5218 61.5613 55.5123C61.5613 55.4361 61.5518 55.3599 61.5518 55.2742C61.4946 53.3881 61.3708 48.9776 57.2366 47.5678C57.208 47.5583 57.1699 47.5488 57.1413 47.5392C52.8452 46.4438 49.273 43.9671 49.2349 43.9385C48.6538 43.5289 47.8537 43.6718 47.4441 44.2528C47.0345 44.8339 47.1773 45.6341 47.7584 46.0437C47.9204 46.158 51.7116 48.7966 56.4555 50.0159C58.675 50.8066 58.9226 53.1785 58.9893 55.3504C58.9893 55.4361 58.9893 55.5123 58.9989 55.5885C59.0084 56.4458 58.9512 57.7699 58.7988 58.532C57.2556 59.4084 51.2068 62.4376 42.0048 62.4376C32.841 62.4376 26.7541 59.3988 25.2014 58.5225C25.0489 57.7604 24.9823 56.4363 25.0013 55.579C25.0013 55.5028 25.0108 55.4266 25.0108 55.3409C25.0775 53.169 25.3252 50.797 27.5447 50.0064C32.2885 48.7871 36.0798 46.1389 36.2417 46.0341C36.8228 45.6245 36.9657 44.8244 36.5561 44.2433C36.1465 43.6622 35.3463 43.5193 34.7652 43.929C34.7271 43.9575 31.174 46.4342 26.8588 47.5297C26.8207 47.5392 26.7922 47.5488 26.7636 47.5583C22.6294 48.9776 22.5056 53.3881 22.4484 55.2647C22.4484 55.3504 22.4484 55.4266 22.4389 55.5028C22.4389 55.5123 22.4389 55.5218 22.4389 55.5314C22.4293 56.0267 22.4198 58.5701 22.9247 59.8466C23.0199 60.0942 23.1914 60.3038 23.42 60.4467C23.7058 60.6372 30.5548 65 42.0144 65C53.4739 65 60.3229 60.6277 60.6087 60.4467C60.8278 60.3038 61.0088 60.0942 61.1041 59.8466C61.5803 58.5796 61.5708 56.0362 61.5613 55.5409Z" fill="#BDBDBD"/>
</g>
<defs>
<clipPath id="clip0">
<rect x="19" y="19" width="46" height="46" fill="white"/>
</clipPath>
</defs>
</svg>
